# xmcd CD database file
#
# Track frame offsets:
#	150
#	35119
#	70600
#	90034
#	114503
#	133482
#	149353
#	174149
#	198725
#	216674
#	233408
#	250792
#	271932
#	292196
#	320923
#
# Disc length: 4595 seconds
#
# Revision: 2
# Processed by: cddbd v1.4b41PL1 Copyright (c) Steve Scherf et al.
# Submitted via: Feurio! 1.50.2ß - http://www.feurio.com
#
DISCID=e811f10f
DTITLE=Silver Convention - The Greatest Hits
DYEAR=1900
DGENRE=
TTITLE0=Fly, Robin, Fly
TTITLE1=Get Up And Boogie
TTITLE2=Save Me
TTITLE3=Telegram
TTITLE4=Tiger Baby
TTITLE5=Everybody`s Talking 'Bout Love
TTITLE6=Always Another Girl
TTITLE7=Dancing In The Aisle
TTITLE8=No, No, Joe
TTITLE9=Son Of A Gun
TTITLE10=You`ve Got What It Takes
TTITLE11=San Francisco Hustle
TTITLE12=Acuestate Conmigo
TTITLE13=Lady Bump
TTITLE14=Ooh What A Night
EXTD=
EXTT0=
EXTT1=
EXTT2=
EXTT3=
EXTT4=
EXTT5=
EXTT6=
EXTT7=
EXTT8=
EXTT9=
EXTT10=
EXTT11=
EXTT12=
EXTT13=
EXTT14=
PLAYORDER=
